# xmcd
#
# Track frame offsets:
#	150
#	24600
#	33972
#	55108
#	79504
#	94428
#	111273
#	128404
#	146160
#	170948
#
# Disc length: 2584 seconds
#
# Revision: 1
# Processed by: cddbd v1.5.2PL0 Copyright (c) Steve Scherf et al.
# Submitted via: audiograbber 1.83.01
#
DISCID=850a160a
DTITLE=Scott Ainslie - Thunder's Mouth
DYEAR=2008
DGENRE=Acoustic Blues
TTITLE0=Down In Mississippi
TTITLE1=Grinnin' In Your Face
TTITLE2=Oil In My Vessel
TTITLE3=It's Gonna Rain
TTITLE4=If Anybody Asks About Me
TTITLE5=Another Man Done Gone
TTITLE6=Little Trip To Heaven
TTITLE7=I Should Get Over This
TTITLE8=Dust My Broom
TTITLE9=Thunder's Mouth
EXTD=Liner Notes from Scott Ainslie:\n\nThe title phrase, Thunder's Mouth, come
EXTD=s from the fount of so many poetic English expressions, William Shakespear
EXTD=e (The Life and Death of King John).  This is a song that shadowed me like a
EXTD=half-wild stray for most of a year.  Curled up by the fire now, it's home
EXTD=\n\nThis recording features the extraordinary gifts of dear friends Eugen
EXTD=e Friesen, Sam Broussard, and T-Bone Wolk, recorded with the advice and he
EXTD=lp of Corin Nelsen.  We mixed and mastered it at Will Ackerman's Imaginary
EXTD=Road Studio in Windham County, VT, in the winter of 2008.\n\nCopyright (C
EXTD=) 2008 Scott Ainslie\nDistributed by Cattail Music, Ltd., http://cattailmu
EXTD=sic.com\n
EXTT0=
EXTT1=
EXTT2=
EXTT3=
EXTT4=
EXTT5=
EXTT6=
EXTT7=
EXTT8=
EXTT9=
PLAYORDER=
